<?xml version="1.0" encoding="UTF-8"?>
<svg id="Layer_1" data-name="Layer 1" xmlns="http://www.w3.org/2000/svg" xmlns:xlink="http://www.w3.org/1999/xlink" viewBox="0 0 222.46 184.55">
  <defs>
    <style>
      .cls-1 {
        fill: url(#linear-gradient);
      }

      .cls-1, .cls-2, .cls-3, .cls-4, .cls-5 {
        stroke-width: 0px;
      }

      .cls-2 {
        fill: #0c0b4f;
      }

      .cls-3 {
        fill: #a53b00;
      }

      .cls-4 {
        fill: #ff9700;
      }

      .cls-5 {
        fill: #fff;
      }
    </style>
    <linearGradient id="linear-gradient" x1="214.61" y1="702.42" x2="53.45" y2="529.08" gradientTransform="translate(-20.17 724.99) rotate(1.37) scale(1 -1)" gradientUnits="userSpaceOnUse">
      <stop offset="0" stop-color="#ff00c7"/>
      <stop offset=".12" stop-color="#fe02c1"/>
      <stop offset=".28" stop-color="#fe09b1"/>
      <stop offset=".46" stop-color="#fd1497"/>
      <stop offset=".66" stop-color="#fc2572"/>
      <stop offset=".86" stop-color="#fb3943"/>
      <stop offset="1" stop-color="#fa4a1e"/>
    </linearGradient>
  </defs>
  <path class="cls-1" d="m0,184.42c-.23-18.09,4.69-35.85,13.99-51.37,7.23-12.06,11.27-26.5,10.89-41.93-.01-.41-.02-.81-.02-1.22C24.25,41.13,60.47,1.08,105.94.02c45.9-1.07,84.32,38.52,85.01,87.64,0,.53.01,1.07.01,1.6-.03,16.46,4.99,31.65,13.49,43.94,11.21,16.21,17.76,31.64,18,51.35L0,184.42h0Z"/>
  <circle class="cls-5" cx="107.34" cy="77.08" r="57.26"/>
  <path class="cls-4" d="m97.98,87.23c0,.17-.02.34-.01.52.07,5.4,4.51,9.73,9.91,9.67,5.4-.07,9.73-4.51,9.67-9.91,0-.17-.02-.34-.03-.51l-19.53.24h0Z"/>
  <circle class="cls-2" cx="86.28" cy="78.66" r="9.57"/>
  <circle class="cls-2" cx="129.71" cy="78.11" r="9.57"/>
  <path class="cls-2" d="m146.76,67.66h0c-.52-1.71-2.42-2.66-4.24-2.12l-9.15,2.71c-1.82.54-2.89,2.37-2.38,4.07h0c.52,1.71,2.42,2.66,4.24,2.12l9.15-2.71c1.82-.54,2.89-2.37,2.38-4.07Z"/>
  <path class="cls-2" d="m145.5,77.79h0c.85-1.57.18-3.59-1.49-4.5l-8.38-4.55c-1.67-.91-3.71-.37-4.56,1.2h0c-.85,1.57-.18,3.59,1.49,4.5l8.38,4.55c1.67.91,3.71.37,4.56-1.2Z"/>
  <path class="cls-2" d="m68.93,68.64h0c.47-1.73,2.35-2.72,4.18-2.23l9.21,2.48c1.84.49,2.95,2.29,2.47,4.02h0c-.47,1.73-2.35,2.72-4.18,2.23l-9.21-2.48c-1.84-.49-2.95-2.29-2.47-4.02Z"/>
  <path class="cls-2" d="m70.45,78.73h0c-.88-1.55-.26-3.58,1.38-4.53l8.27-4.76c1.65-.95,3.7-.46,4.6,1.09h0c.88,1.55.26,3.58-1.38,4.53l-8.27,4.76c-1.65.95-3.7.46-4.6-1.09Z"/>
  <path class="cls-2" d="m75.19,64.41h0c-.88-1.55-.26-3.58,1.38-4.53l8.27-4.76c1.65-.95,3.7-.46,4.6,1.09h0c.88,1.55.26,3.58-1.38,4.53l-8.27,4.76c-1.65.95-3.7.46-4.6-1.09Z"/>
  <path class="cls-2" d="m138.85,63.61h0c.85-1.57.18-3.59-1.49-4.5l-8.38-4.55c-1.67-.91-3.71-.37-4.56,1.2h0c-.85,1.57-.18,3.59,1.49,4.5l8.38,4.55c1.67.91,3.71.37,4.56-1.2Z"/>
  <path class="cls-4" d="m106.1,15.1s-.84,42.71,57.21,41.98c0,0-12.28-42.55-57.21-41.98Z"/>
  <path class="cls-4" d="m106.84,15.09s1.92,42.68-56.14,43.41c0,0,11.21-42.84,56.14-43.41Z"/>
  <path class="cls-3" d="m164.78,174.11s-12.28-42.55-57.21-41.98c0,0-.84,42.71,57.21,41.98"/>
  <path class="cls-3" d="m52.17,175.52s11.21-42.84,56.14-43.41c0,0,1.92,42.68-56.14,43.41"/>
  <circle class="cls-3" cx="107.28" cy="139.13" r="12.15" transform="translate(-34.38 243.05) rotate(-88.63)"/>
  <path class="cls-4" d="m74.95,102.24c-.16-12.6-10.5-22.69-23.11-22.53-.96.02-1.9.09-2.83.21,1.11,15.46,8.2,29.22,18.95,39.03,4.37-4.22,7.07-10.15,6.98-16.71h0Z"/>
  <path class="cls-4" d="m165.73,79.92c-.9-.09-1.8-.14-2.73-.14-12.6.16-22.69,10.5-22.53,23.11.08,6.16,2.6,11.73,6.62,15.78,10.61-9.81,17.55-23.49,18.64-38.75Z"/>
</svg>